<svg xmlns="http://www.w3.org/2000/svg" viewBox="0 0 32 32">
  <defs>
    <linearGradient id="bg" x1="0" y1="0" x2="1" y2="1">
      <stop offset="0%" stop-color="#4F46E5"/>
      <stop offset="100%" stop-color="#7C3AED"/>
    </linearGradient>
  </defs>
  <rect width="32" height="32" rx="7" fill="url(#bg)"/>
  <path d="M8 7h7v18H8a1 1 0 01-1-1V8a1 1 0 011-1z" fill="#fff" opacity="0.9"/>
  <path d="M15 7h7a1 1 0 011 1v16a1 1 0 01-1 1h-7V7z" fill="#fff" opacity="0.75"/>
  <path d="M15 7v18" stroke="#4F46E5" stroke-width="0.8" opacity="0.4"/>
  <path d="M10 11h4M10 14h4M10 17h4M10 20h4" stroke="#4F46E5" stroke-width="0.7" stroke-linecap="round" opacity="0.5"/>
  <path d="M18 11h4M18 14h4M18 17h4M18 20h4" stroke="#4F46E5" stroke-width="0.7" stroke-linecap="round" opacity="0.4"/>
</svg>
